# xmcd
#
# Track frame offsets: 
#        150
#        25528
#        44525
#        102449
#        135280
#        154495
#        178775
#        232696
#        248642
#        262815
#        287611
#
# Disc length: 4182 seconds
#
# Revision: 0
# Processed by: cddbd v1.5.2PL0 Copyright (c) Steve Scherf et al.
# Submitted via: ExactAudioCopy v0.95b3
#
DISCID=8510540b
DTITLE=Jimi Hendrix  - In the Studio Reclamation 1967-1970 - Disc 02  
DTITLE=FLAC
DYEAR=1900
DGENRE=
TTITLE0=Valleys Of Neptune
TTITLE1=Lover Man
TTITLE2=Machine Gun
TTITLE3=Trying To Be (Stepping Stone)-Earth Blues
TTITLE4=Stepping Stone
TTITLE5=Untitled Guitar Improvisation
TTITLE6=Keep On Grooving (Midnight Lightning)
TTITLE7=Come Down Hard On Me Baby
TTITLE8=Drifters Escape
TTITLE9=Belly Button Window
TTITLE10=Bolero
EXTD=
EXTT0=
EXTT1=
EXTT2=
EXTT3=
EXTT4=
EXTT5=
EXTT6=
EXTT7=
EXTT8=
EXTT9=
EXTT10=
PLAYORDER=
